<?xml version="1.0" encoding="utf-8"?>

<!-- License Agreement at http://iconmonstr.com/license/ -->

<!DOCTYPE svg PUBLIC "-//W3C//DTD SVG 1.1//EN" "http://www.w3.org/Graphics/SVG/1.1/DTD/svg11.dtd">
<svg version="1.1" xmlns="http://www.w3.org/2000/svg" xmlns:xlink="http://www.w3.org/1999/xlink" x="0px" y="0px"
	 width="512px" height="512px" viewBox="0 0 512 512" enable-background="new 0 0 512 512" xml:space="preserve">
<path id="note-20-icon" d="M116.333,422V90h279.334c0,0,0,186.325,0,218.075c0,63.121-77.928,37.833-77.928,37.833
	s23.859,76.092-35,76.092C250.677,422,234.675,422,116.333,422z M435.667,311.528V50H76.333v412h207.016
	C351.514,462,435.667,372.931,435.667,311.528z M239.748,334.466c44.939-80.589,76.147-122.007,118.757-159.192l-5.537-12.739
	c-51.672,32.147-79.47,56.369-121.539,104.109c-22.377-15.952-35.005-23.281-54.914-32.916l-17.02,15.735
	C193.535,281.015,212.033,301.823,239.748,334.466z"/>
</svg>
